<svg xmlns="http://www.w3.org/2000/svg" viewBox="0 0 1280 640" role="img" aria-label="Scoria — AI ops for Phoenix apps. Open source on GitHub.">
  <title>Scoria — AI ops for Phoenix apps.</title>
  <rect width="1280" height="640" fill="#11100F"/>
  <g transform="translate(337.16,347.91) scale(2.09)">
    <path fill="#FFF9F3" fill-rule="evenodd" d="M29.9,1.2L29.9,1.2Q21,1.2,14.65,-2Q8.3,-5.2,3.9,-10.4L3.9,-10.4L12.8,-19Q16.4,-14.8,20.85,-12.6Q25.3,-10.4,30.7,-10.4L30.7,-10.4Q36.8,-10.4,39.9,-13.1Q43,-15.8,43,-20.2L43,-20.2Q43,-22.6,42.15,-24.35Q41.3,-26.1,39.2,-27.3Q37.1,-28.5,33.5,-29.1L33.5,-29.1L26.9,-30.1Q19.9,-31.2,15.25,-33.8Q10.6,-36.4,8.3,-40.6Q6,-44.8,6,-50.4L6,-50.4Q6,-56.7,9.1,-61.3Q12.2,-65.9,17.85,-68.45Q23.5,-71,31.3,-71L31.3,-71Q39.2,-71,45.1,-68.35Q51,-65.7,55.2,-60.7L55.2,-60.7L46.2,-52.2Q43.6,-55.4,39.9,-57.4Q36.2,-59.4,30.6,-59.4L30.6,-59.4Q25,-59.4,22.1,-57.25Q19.2,-55.1,19.2,-51.2L19.2,-51.2Q19.2,-48.5,20.2,-46.8Q21.2,-45.1,23.4,-44.15Q25.6,-43.2,28.9,-42.5L28.9,-42.5L35.4,-41.3Q42.5,-40.1,47.1,-37.5Q51.7,-34.9,53.9,-30.85Q56.1,-26.8,56.1,-21L56.1,-21Q56.1,-14.4,53.05,-9.4Q50,-4.4,44.1,-1.6Q38.2,1.2,29.9,1.2M88.6,1.2L88.6,1.2Q77,1.2,70.75,-6.2Q64.5,-13.6,64.5,-26.2L64.5,-26.2Q64.5,-38.7,70.75,-46.05Q77,-53.4,88.6,-53.4L88.6,-53.4Q96.5,-53.4,101.65,-49.9Q106.8,-46.4,109.1,-40.2L109.1,-40.2L98.6,-35.5Q97.7,-38.8,95.2,-40.95Q92.7,-43.1,88.6,-43.1L88.6,-43.1Q83.3,-43.1,80.6,-39.75Q77.9,-36.4,77.9,-30.8L77.9,-30.8L77.9,-21.3Q77.9,-15.9,80.6,-12.5Q83.3,-9.1,88.6,-9.1L88.6,-9.1Q93.1,-9.1,95.65,-11.45Q98.2,-13.8,99.6,-17.3L99.6,-17.3L109.4,-12.6Q106.9,-5.7,101.55,-2.25Q96.2,1.2,88.6,1.2M187.4,-32L187.4,0L174.6,0L174.6,-52.2L187.4,-52.2L187.4,-41.4L187.9,-41.4Q188.6,-44.2,190.25,-46.65Q191.9,-49.1,194.75,-50.65Q197.6,-52.2,201.7,-52.2L201.7,-52.2L204.5,-52.2L204.5,-40.1L200.5,-40.1Q196.2,-40.1,193.25,-39.25Q190.3,-38.4,188.85,-36.65Q187.4,-34.9,187.4,-32L187.4,-32M219.8,-59.8L219.8,-59.8Q215.9,-59.8,214.1,-61.65Q212.3,-63.5,212.3,-66.2L212.3,-66.2L212.3,-68.2Q212.3,-71,214.1,-72.8Q215.9,-74.6,219.8,-74.6L219.8,-74.6Q223.7,-74.6,225.5,-72.8Q227.3,-71,227.3,-68.2L227.3,-68.2L227.3,-66.2Q227.3,-63.5,225.5,-61.65Q223.7,-59.8,219.8,-59.8M226.2,0L213.4,0L213.4,-52.2L226.2,-52.2L226.2,0M285.9,-10.2L285.9,0L278.8,0Q275.9,0,273.65,-1.35Q271.4,-2.7,270.15,-5.3Q268.9,-7.9,268.9,-11.4L268.9,-11.4L268.9,-12.5L272.1,-9L268.5,-9Q267.2,-4,263.15,-1.4Q259.1,1.2,253.3,1.2L253.3,1.2Q245.3,1.2,241,-3.05Q236.7,-7.3,236.7,-14.2L236.7,-14.2Q236.7,-19.6,239.35,-23.1Q242,-26.6,247,-28.4Q252,-30.2,259,-30.2L259,-30.2L267.9,-30.2L267.9,-34Q267.9,-38.3,265.6,-40.75Q263.3,-43.2,258.2,-43.2L258.2,-43.2Q253.7,-43.2,250.95,-41.25Q248.2,-39.3,246.3,-36.6L246.3,-36.6L238.7,-43.4Q241.6,-47.9,246.4,-50.65Q251.2,-53.4,259.1,-53.4L259.1,-53.4Q269.6,-53.4,275.15,-48.55Q280.7,-43.7,280.7,-34.8L280.7,-34.8L280.7,-10.2L285.9,-10.2M267.9,-15.6L267.9,-22.5L259.7,-22.5Q254.7,-22.5,252.2,-20.85Q249.7,-19.2,249.7,-16.1L249.7,-16.1L249.7,-14.4Q249.7,-11.3,251.8,-9.7Q253.9,-8.1,257.6,-8.1L257.6,-8.1Q260.5,-8.1,262.8,-8.95Q265.1,-9.8,266.5,-11.5Q267.9,-13.2,267.9,-15.6L267.9,-15.6"/>
    <g transform="translate(141.57,-23.23) scale(0.58)">
      <path fill="#E65A32" fill-rule="evenodd" d="M0,-51.98L35.48,-36.24Q41.88,-33.4,42.43,-26.42L44.79,3.37Q45.34,10.35,40.4,15.31L23.06,32.67Q18.12,37.63,11.17,38.44L-13.32,41.28Q-20.27,42.09,-25.37,37.29L-47.22,16.74Q-52.32,11.94,-50.51,5.18L-42.31,-25.54Q-40.5,-32.3,-34.2,-35.36ZM-1.4,-22C-1.4,-30.06,-7.94,-36.6,-16,-36.6C-24.06,-36.6,-30.6,-30.06,-30.6,-22C-30.6,-13.94,-24.06,-7.4,-16,-7.4C-7.94,-7.4,-1.4,-13.94,-1.4,-22ZM10.5,-2C10.5,-6.69,6.69,-10.5,2,-10.5C-2.69,-10.5,-6.5,-6.69,-6.5,-2C-6.5,2.69,-2.69,6.5,2,6.5C6.69,6.5,10.5,2.69,10.5,-2ZM22,16C22,12.69,19.31,10,16,10C12.69,10,10,12.69,10,16C10,19.31,12.69,22,16,22C19.31,22,22,19.31,22,16ZM10,30C10,27.79,8.21,26,6,26C3.79,26,2,27.79,2,30C2,32.21,3.79,34,6,34C8.21,34,10,32.21,10,30Z"/>
    </g>
  </g>
  <path fill="#FFF9F3" fill-rule="evenodd" d="M16.76,-27.92L26.04,0L20.56,0L18.32,-7.12L8.4,-7.12L6.2,0L0.84,0L10.2,-27.92L16.76,-27.92M9.68,-11.64L17.04,-11.64L14.76,-18.68L13.44,-23.12L13.24,-23.12L11.92,-18.68L9.68,-11.64M42.88,-4.24L42.88,0L30.2,0L30.2,-4.24L33.88,-4.24L33.88,-23.68L30.2,-23.68L30.2,-27.92L42.88,-27.92L42.88,-23.68L39.16,-23.68L39.16,-4.24L42.88,-4.24M68.08,0.48L68.08,0.48Q65.12,0.48,62.94,-0.86Q60.76,-2.2,59.58,-4.66Q58.4,-7.12,58.4,-10.48L58.4,-10.48Q58.4,-13.84,59.58,-16.26Q60.76,-18.68,62.94,-20.02Q65.12,-21.36,68.08,-21.36L68.08,-21.36Q71.08,-21.36,73.26,-20.02Q75.44,-18.68,76.62,-16.26Q77.8,-13.84,77.8,-10.48L77.8,-10.48Q77.8,-7.12,76.62,-4.66Q75.44,-2.2,73.26,-0.86Q71.08,0.48,68.08,0.48M68.08,-3.64L68.08,-3.64Q70.12,-3.64,71.28,-4.9Q72.44,-6.16,72.44,-8.52L72.44,-8.52L72.44,-12.4Q72.44,-14.76,71.28,-16Q70.12,-17.24,68.08,-17.24L68.08,-17.24Q66.12,-17.24,64.94,-16Q63.76,-14.76,63.76,-12.4L63.76,-12.4L63.76,-8.52Q63.76,-6.16,64.94,-4.9Q66.12,-3.64,68.08,-3.64M88.64,8L83.52,8L83.52,-20.88L88.64,-20.88L88.64,-17.44L88.8,-17.44Q89.36,-19.24,90.94,-20.3Q92.52,-21.36,94.56,-21.36L94.56,-21.36Q97.24,-21.36,99.04,-20.08Q100.84,-18.8,101.8,-16.38Q102.76,-13.96,102.76,-10.48L102.76,-10.48Q102.76,-7,101.8,-4.54Q100.84,-2.08,99.04,-0.8Q97.24,0.48,94.56,0.48L94.56,0.48Q92.52,0.48,90.96,-0.6Q89.4,-1.68,88.8,-3.48L88.8,-3.48L88.64,-3.48L88.64,8M92.92,-3.76L92.92,-3.76Q94.92,-3.76,96.16,-5.1Q97.4,-6.44,97.4,-8.64L97.4,-8.64L97.4,-12.24Q97.4,-14.48,96.16,-15.82Q94.92,-17.16,92.92,-17.16L92.92,-17.16Q91.72,-17.16,90.74,-16.74Q89.76,-16.32,89.2,-15.56Q88.64,-14.8,88.64,-13.8L88.64,-13.8L88.64,-7.16Q88.64,-6.08,89.2,-5.32Q89.76,-4.56,90.74,-4.16Q91.72,-3.76,92.92,-3.76M115.56,0.48L115.56,0.48Q112.56,0.48,110.52,-0.54Q108.48,-1.56,106.92,-3.36L106.92,-3.36L110.04,-6.4Q111.2,-5.08,112.58,-4.32Q113.96,-3.56,115.76,-3.56L115.76,-3.56Q117.6,-3.56,118.42,-4.2Q119.24,-4.84,119.24,-5.96L119.24,-5.96Q119.24,-6.88,118.66,-7.42Q118.08,-7.96,116.68,-8.16L116.68,-8.16L114.6,-8.44Q112.36,-8.72,110.8,-9.48Q109.24,-10.24,108.44,-11.56Q107.64,-12.88,107.64,-14.76L107.64,-14.76Q107.64,-17.8,109.82,-19.58Q112,-21.36,115.56,-21.36L115.56,-21.36Q117.6,-21.36,119.06,-20.98Q120.52,-20.6,121.64,-19.86Q122.76,-19.12,123.72,-18.08L123.72,-18.08L120.72,-15.08Q119.8,-16.04,118.52,-16.68Q117.24,-17.32,115.72,-17.32L115.72,-17.32Q114.12,-17.32,113.34,-16.74Q112.56,-16.16,112.56,-15.16L112.56,-15.16Q112.56,-14.12,113.18,-13.58Q113.8,-13.04,115.28,-12.8L115.28,-12.8L117.4,-12.52Q120.84,-12.04,122.5,-10.5Q124.16,-8.96,124.16,-6.36L124.16,-6.36Q124.16,-4.36,123.1,-2.8Q122.04,-1.24,120.1,-0.38Q118.16,0.48,115.56,0.48M146.68,0L141.56,0L141.56,-16.84L138.48,-16.84L138.48,-20.88L141.56,-20.88L141.56,-23.88Q141.56,-26.64,143.04,-28.12Q144.52,-29.6,147.32,-29.6L147.32,-29.6L150.96,-29.6L150.96,-25.52L146.68,-25.52L146.68,-20.88L150.96,-20.88L150.96,-16.84L146.68,-16.84L146.68,0M164,0.48L164,0.48Q161.04,0.48,158.86,-0.86Q156.68,-2.2,155.5,-4.66Q154.32,-7.12,154.32,-10.48L154.32,-10.48Q154.32,-13.84,155.5,-16.26Q156.68,-18.68,158.86,-20.02Q161.04,-21.36,164,-21.36L164,-21.36Q167,-21.36,169.18,-20.02Q171.36,-18.68,172.54,-16.26Q173.72,-13.84,173.72,-10.48L173.72,-10.48Q173.72,-7.12,172.54,-4.66Q171.36,-2.2,169.18,-0.86Q167,0.48,164,0.48M164,-3.64L164,-3.64Q166.04,-3.64,167.2,-4.9Q168.36,-6.16,168.36,-8.52L168.36,-8.52L168.36,-12.4Q168.36,-14.76,167.2,-16Q166.04,-17.24,164,-17.24L164,-17.24Q162.04,-17.24,160.86,-16Q159.68,-14.76,159.68,-12.4L159.68,-12.4L159.68,-8.52Q159.68,-6.16,160.86,-4.9Q162.04,-3.64,164,-3.64M184.56,-12.8L184.56,0L179.44,0L179.44,-20.88L184.56,-20.88L184.56,-16.56L184.76,-16.56Q185.04,-17.68,185.7,-18.66Q186.36,-19.64,187.5,-20.26Q188.64,-20.88,190.28,-20.88L190.28,-20.88L191.4,-20.88L191.4,-16.04L189.8,-16.04Q188.08,-16.04,186.9,-15.7Q185.72,-15.36,185.14,-14.66Q184.56,-13.96,184.56,-12.8L184.56,-12.8M212.6,-10.64L212.6,0L207.32,0L207.32,-27.92L219.88,-27.92Q222.48,-27.92,224.32,-26.84Q226.16,-25.76,227.16,-23.82Q228.16,-21.88,228.16,-19.28L228.16,-19.28Q228.16,-16.68,227.16,-14.74Q226.16,-12.8,224.32,-11.72Q222.48,-10.64,219.88,-10.64L219.88,-10.64L212.6,-10.64M219.4,-23.32L212.6,-23.32L212.6,-15.2L219.4,-15.2Q220.44,-15.2,221.16,-15.58Q221.88,-15.96,222.28,-16.66Q222.68,-17.36,222.68,-18.36L222.68,-18.36L222.68,-20.2Q222.68,-21.24,222.28,-21.92Q221.88,-22.6,221.16,-22.96Q220.44,-23.32,219.4,-23.32L219.4,-23.32M238.96,0L233.84,0L233.84,-29.6L238.96,-29.6L238.96,-17.4L239.16,-17.4Q239.8,-19.08,241.18,-20.22Q242.56,-21.36,245,-21.36L245,-21.36Q248.2,-21.36,249.94,-19.22Q251.68,-17.08,251.68,-13.2L251.68,-13.2L251.68,0L246.56,0L246.56,-12.68Q246.56,-14.88,245.76,-16.02Q244.96,-17.16,243.12,-17.16L243.12,-17.16Q242.08,-17.16,241.12,-16.78Q240.16,-16.4,239.56,-15.66Q238.96,-14.92,238.96,-13.8L238.96,-13.8L238.96,0M266.84,0.48L266.84,0.48Q263.88,0.48,261.7,-0.86Q259.52,-2.2,258.34,-4.66Q257.16,-7.12,257.16,-10.48L257.16,-10.48Q257.16,-13.84,258.34,-16.26Q259.52,-18.68,261.7,-20.02Q263.88,-21.36,266.84,-21.36L266.84,-21.36Q269.84,-21.36,272.02,-20.02Q274.2,-18.68,275.38,-16.26Q276.56,-13.84,276.56,-10.48L276.56,-10.48Q276.56,-7.12,275.38,-4.66Q274.2,-2.2,272.02,-0.86Q269.84,0.48,266.84,0.48M266.84,-3.64L266.84,-3.64Q268.88,-3.64,270.04,-4.9Q271.2,-6.16,271.2,-8.52L271.2,-8.52L271.2,-12.4Q271.2,-14.76,270.04,-16Q268.88,-17.24,266.84,-17.24L266.84,-17.24Q264.88,-17.24,263.7,-16Q262.52,-14.76,262.52,-12.4L262.52,-12.4L262.52,-8.52Q262.52,-6.16,263.7,-4.9Q264.88,-3.64,266.84,-3.64M290.72,0.48L290.72,0.48Q287.64,0.48,285.44,-0.86Q283.24,-2.2,282.06,-4.66Q280.88,-7.12,280.88,-10.48L280.88,-10.48Q280.88,-13.76,282.04,-16.22Q283.2,-18.68,285.36,-20.02Q287.52,-21.36,290.56,-21.36L290.56,-21.36Q293.84,-21.36,295.94,-19.92Q298.04,-18.48,299.06,-16.1Q300.08,-13.72,300.08,-10.84L300.08,-10.84L300.08,-9.16L286.2,-9.16L286.2,-8.64Q286.2,-6.4,287.48,-5Q288.76,-3.6,291.28,-3.6L291.28,-3.6Q293.16,-3.6,294.4,-4.42Q295.64,-5.24,296.6,-6.44L296.6,-6.44L299.36,-3.36Q298.08,-1.64,295.86,-0.58Q293.64,0.48,290.72,0.48M290.64,-17.52L290.64,-17.52Q289.28,-17.52,288.28,-16.9Q287.28,-16.28,286.74,-15.18Q286.2,-14.08,286.2,-12.64L286.2,-12.64L286.2,-12.32L294.76,-12.32L294.76,-12.68Q294.76,-14.16,294.28,-15.22Q293.8,-16.28,292.88,-16.9Q291.96,-17.52,290.64,-17.52M310.92,-13.8L310.92,0L305.8,0L305.8,-20.88L310.92,-20.88L310.92,-17.4L311.12,-17.4Q311.76,-19.08,313.14,-20.22Q314.52,-21.36,316.96,-21.36L316.96,-21.36Q320.16,-21.36,321.9,-19.22Q323.64,-17.08,323.64,-13.2L323.64,-13.2L323.64,0L318.52,0L318.52,-12.68Q318.52,-14.88,317.72,-16.02Q316.92,-17.16,315.08,-17.16L315.08,-17.16Q314.04,-17.16,313.08,-16.78Q312.12,-16.4,311.52,-15.66Q310.92,-14.92,310.92,-13.8L310.92,-13.8M333.08,-23.92L333.08,-23.92Q331.52,-23.92,330.8,-24.66Q330.08,-25.4,330.08,-26.48L330.08,-26.48L330.08,-27.28Q330.08,-28.4,330.8,-29.12Q331.52,-29.84,333.08,-29.84L333.08,-29.84Q334.64,-29.84,335.36,-29.12Q336.08,-28.4,336.08,-27.28L336.08,-27.28L336.08,-26.48Q336.08,-25.4,335.36,-24.66Q334.64,-23.92,333.08,-23.92M335.64,0L330.52,0L330.52,-20.88L335.64,-20.88L335.64,0M345.92,0L340.52,0L347.64,-10.6L340.68,-20.88L346.52,-20.88L350.84,-13.96L350.96,-13.96L355.24,-20.88L360.72,-20.88L353.64,-10.52L360.76,0L354.92,0L350.52,-7.2L350.36,-7.2L345.92,0M394.52,-4.08L394.52,0L391.68,0Q390.52,0,389.62,-0.54Q388.72,-1.08,388.22,-2.12Q387.72,-3.16,387.72,-4.56L387.72,-4.56L387.72,-5L389,-3.6L387.56,-3.6Q387.04,-1.6,385.42,-0.56Q383.8,0.48,381.48,0.48L381.48,0.48Q378.28,0.48,376.56,-1.22Q374.84,-2.92,374.84,-5.68L374.84,-5.68Q374.84,-7.84,375.9,-9.24Q376.96,-10.64,378.96,-11.36Q380.96,-12.08,383.76,-12.08L383.76,-12.08L387.32,-12.08L387.32,-13.6Q387.32,-15.32,386.4,-16.3Q385.48,-17.28,383.44,-17.28L383.44,-17.28Q381.64,-17.28,380.54,-16.5Q379.44,-15.72,378.68,-14.64L378.68,-14.64L375.64,-17.36Q376.8,-19.16,378.72,-20.26Q380.64,-21.36,383.8,-21.36L383.8,-21.36Q388,-21.36,390.22,-19.42Q392.44,-17.48,392.44,-13.92L392.44,-13.92L392.44,-4.08L394.52,-4.08M387.32,-6.24L387.32,-9L384.04,-9Q382.04,-9,381.04,-8.34Q380.04,-7.68,380.04,-6.44L380.04,-6.44L380.04,-5.76Q380.04,-4.52,380.88,-3.88Q381.72,-3.24,383.2,-3.24L383.2,-3.24Q384.36,-3.24,385.28,-3.58Q386.2,-3.92,386.76,-4.6Q387.32,-5.28,387.32,-6.24L387.32,-6.24M405,8L399.88,8L399.88,-20.88L405,-20.88L405,-17.44L405.16,-17.44Q405.72,-19.24,407.3,-20.3Q408.88,-21.36,410.92,-21.36L410.92,-21.36Q413.6,-21.36,415.4,-20.08Q417.2,-18.8,418.16,-16.38Q419.12,-13.96,419.12,-10.48L419.12,-10.48Q419.12,-7,418.16,-4.54Q417.2,-2.08,415.4,-0.8Q413.6,0.48,410.92,0.48L410.92,0.48Q408.88,0.48,407.32,-0.6Q405.76,-1.68,405.16,-3.48L405.16,-3.48L405,-3.48L405,8M409.28,-3.76L409.28,-3.76Q411.28,-3.76,412.52,-5.1Q413.76,-6.44,413.76,-8.64L413.76,-8.64L413.76,-12.24Q413.76,-14.48,412.52,-15.82Q411.28,-17.16,409.28,-17.16L409.28,-17.16Q408.08,-17.16,407.1,-16.74Q406.12,-16.32,405.56,-15.56Q405,-14.8,405,-13.8L405,-13.8L405,-7.16Q405,-6.08,405.56,-5.32Q406.12,-4.56,407.1,-4.16Q408.08,-3.76,409.28,-3.76M430.2,8L425.08,8L425.08,-20.88L430.2,-20.88L430.2,-17.44L430.36,-17.44Q430.92,-19.24,432.5,-20.3Q434.08,-21.36,436.12,-21.36L436.12,-21.36Q438.8,-21.36,440.6,-20.08Q442.4,-18.8,443.36,-16.38Q444.32,-13.96,444.32,-10.48L444.32,-10.48Q444.32,-7,443.36,-4.54Q442.4,-2.08,440.6,-0.8Q438.8,0.48,436.12,0.48L436.12,0.48Q434.08,0.48,432.52,-0.6Q430.96,-1.68,430.36,-3.48L430.36,-3.48L430.2,-3.48L430.2,8M434.48,-3.76L434.48,-3.76Q436.48,-3.76,437.72,-5.1Q438.96,-6.44,438.96,-8.64L438.96,-8.64L438.96,-12.24Q438.96,-14.48,437.72,-15.82Q436.48,-17.16,434.48,-17.16L434.48,-17.16Q433.28,-17.16,432.3,-16.74Q431.32,-16.32,430.76,-15.56Q430.2,-14.8,430.2,-13.8L430.2,-13.8L430.2,-7.16Q430.2,-6.08,430.76,-5.32Q431.32,-4.56,432.3,-4.16Q433.28,-3.76,434.48,-3.76M457.12,0.48L457.12,0.48Q454.12,0.48,452.08,-0.54Q450.04,-1.56,448.48,-3.36L448.48,-3.36L451.6,-6.4Q452.76,-5.08,454.14,-4.32Q455.52,-3.56,457.32,-3.56L457.32,-3.56Q459.16,-3.56,459.98,-4.2Q460.8,-4.84,460.8,-5.96L460.8,-5.96Q460.8,-6.88,460.22,-7.42Q459.64,-7.96,458.24,-8.16L458.24,-8.16L456.16,-8.44Q453.92,-8.72,452.36,-9.48Q450.8,-10.24,450,-11.56Q449.2,-12.88,449.2,-14.76L449.2,-14.76Q449.2,-17.8,451.38,-19.58Q453.56,-21.36,457.12,-21.36L457.12,-21.36Q459.16,-21.36,460.62,-20.98Q462.08,-20.6,463.2,-19.86Q464.32,-19.12,465.28,-18.08L465.28,-18.08L462.28,-15.08Q461.36,-16.04,460.08,-16.68Q458.8,-17.32,457.28,-17.32L457.28,-17.32Q455.68,-17.32,454.9,-16.74Q454.12,-16.16,454.12,-15.16L454.12,-15.16Q454.12,-14.12,454.74,-13.58Q455.36,-13.04,456.84,-12.8L456.84,-12.8L458.96,-12.52Q462.4,-12.04,464.06,-10.5Q465.72,-8.96,465.72,-6.36L465.72,-6.36Q465.72,-4.36,464.66,-2.8Q463.6,-1.24,461.66,-0.38Q459.72,0.48,457.12,0.48M474.44,0.44L474.44,0.44Q472.84,0.44,472.04,-0.4Q471.24,-1.24,471.24,-2.48L471.24,-2.48L471.24,-3.2Q471.24,-4.48,472.04,-5.32Q472.84,-6.16,474.44,-6.16L474.44,-6.16Q476.12,-6.16,476.88,-5.32Q477.64,-4.48,477.64,-3.2L477.64,-3.2L477.64,-2.48Q477.64,-1.24,476.88,-0.4Q476.12,0.44,474.44,0.44" transform="translate(399.36,428.42)"/>
  <path fill="#B94F31" fill-rule="evenodd" d="M9.26,0.31L9.26,0.31Q6.89,0.31,5.1,-0.75Q3.3,-1.82,2.33,-3.91Q1.35,-6.01,1.35,-9.07L1.35,-9.07Q1.35,-12.14,2.33,-14.24Q3.3,-16.33,5.1,-17.39Q6.89,-18.46,9.26,-18.46L9.26,-18.46Q11.65,-18.46,13.43,-17.39Q15.21,-16.33,16.19,-14.24Q17.16,-12.14,17.16,-9.07L17.16,-9.07Q17.16,-6.01,16.19,-3.91Q15.21,-1.82,13.43,-0.75Q11.65,0.31,9.26,0.31M9.26,-2.73L9.26,-2.73Q10.58,-2.73,11.53,-3.33Q12.48,-3.93,13,-5.03Q13.52,-6.14,13.52,-7.67L13.52,-7.67L13.52,-10.48Q13.52,-12.04,13,-13.13Q12.48,-14.22,11.53,-14.82Q10.58,-15.42,9.26,-15.42L9.26,-15.42Q7.98,-15.42,7.02,-14.82Q6.06,-14.22,5.53,-13.13Q4.99,-12.04,4.99,-10.48L4.99,-10.48L4.99,-7.67Q4.99,-6.14,5.53,-5.03Q6.06,-3.93,7.02,-3.33Q7.98,-2.73,9.26,-2.73M24.28,5.2L20.96,5.2L20.96,-13.57L24.28,-13.57L24.28,-11.34L24.39,-11.34Q24.75,-12.51,25.78,-13.19Q26.81,-13.88,28.13,-13.88L28.13,-13.88Q29.87,-13.88,31.04,-13.05Q32.21,-12.22,32.84,-10.65Q33.46,-9.07,33.46,-6.81L33.46,-6.81Q33.46,-4.55,32.84,-2.95Q32.21,-1.35,31.04,-0.52Q29.87,0.31,28.13,0.31L28.13,0.31Q26.81,0.31,25.79,-0.39Q24.78,-1.09,24.39,-2.26L24.39,-2.26L24.28,-2.26L24.28,5.2M27.07,-2.44L27.07,-2.44Q28.37,-2.44,29.17,-3.32Q29.98,-4.19,29.98,-5.62L29.98,-5.62L29.98,-7.96Q29.98,-9.41,29.17,-10.28Q28.37,-11.15,27.07,-11.15L27.07,-11.15Q26.29,-11.15,25.65,-10.88Q25.01,-10.61,24.65,-10.11Q24.28,-9.62,24.28,-8.97L24.28,-8.97L24.28,-4.65Q24.28,-3.95,24.65,-3.46Q25.01,-2.96,25.65,-2.7Q26.29,-2.44,27.07,-2.44M42.56,0.31L42.56,0.31Q40.56,0.31,39.13,-0.56Q37.7,-1.43,36.93,-3.03Q36.17,-4.63,36.17,-6.81L36.17,-6.81Q36.17,-8.94,36.92,-10.54Q37.67,-12.14,39.08,-13.01Q40.48,-13.88,42.46,-13.88L42.46,-13.88Q44.59,-13.88,45.96,-12.95Q47.32,-12.01,47.98,-10.47Q48.65,-8.92,48.65,-7.05L48.65,-7.05L48.65,-5.95L39.62,-5.95L39.62,-5.62Q39.62,-4.16,40.46,-3.25Q41.29,-2.34,42.93,-2.34L42.93,-2.34Q44.15,-2.34,44.95,-2.87Q45.76,-3.41,46.38,-4.19L46.38,-4.19L48.18,-2.18Q47.35,-1.07,45.9,-0.38Q44.46,0.31,42.56,0.31M42.51,-11.39L42.51,-11.39Q41.63,-11.39,40.98,-10.99Q40.33,-10.58,39.98,-9.87Q39.62,-9.15,39.62,-8.22L39.62,-8.22L39.62,-8.01L45.19,-8.01L45.19,-8.24Q45.19,-9.2,44.88,-9.89Q44.56,-10.58,43.97,-10.99Q43.37,-11.39,42.51,-11.39M55.43,-8.97L55.43,0L52.1,0L52.1,-13.57L55.43,-13.57L55.43,-11.31L55.56,-11.31Q55.98,-12.4,56.88,-13.14Q57.77,-13.88,59.36,-13.88L59.36,-13.88Q61.44,-13.88,62.57,-12.49Q63.7,-11.1,63.7,-8.58L63.7,-8.58L63.7,0L60.37,0L60.37,-8.24Q60.37,-9.67,59.85,-10.41Q59.33,-11.15,58.14,-11.15L58.14,-11.15Q57.46,-11.15,56.84,-10.91Q56.21,-10.66,55.82,-10.18Q55.43,-9.7,55.43,-8.97L55.43,-8.97M79.01,0.31L79.01,0.31Q77.06,0.31,75.74,-0.35Q74.41,-1.01,73.4,-2.18L73.4,-2.18L75.43,-4.16Q76.18,-3.3,77.08,-2.81Q77.97,-2.31,79.14,-2.31L79.14,-2.31Q80.34,-2.31,80.87,-2.73Q81.41,-3.15,81.41,-3.87L81.41,-3.87Q81.41,-4.47,81.03,-4.82Q80.65,-5.17,79.74,-5.3L79.74,-5.3L78.39,-5.49Q76.93,-5.67,75.92,-6.16Q74.91,-6.66,74.39,-7.51Q73.87,-8.37,73.87,-9.59L73.87,-9.59Q73.87,-11.57,75.28,-12.73Q76.7,-13.88,79.01,-13.88L79.01,-13.88Q80.34,-13.88,81.29,-13.64Q82.24,-13.39,82.97,-12.91Q83.69,-12.43,84.32,-11.75L84.32,-11.75L82.37,-9.8Q81.77,-10.43,80.94,-10.84Q80.11,-11.26,79.12,-11.26L79.12,-11.26Q78.08,-11.26,77.57,-10.88Q77.06,-10.5,77.06,-9.85L77.06,-9.85Q77.06,-9.18,77.47,-8.83Q77.87,-8.48,78.83,-8.32L78.83,-8.32L80.21,-8.14Q82.45,-7.83,83.53,-6.82Q84.6,-5.82,84.6,-4.13L84.6,-4.13Q84.6,-2.83,83.92,-1.82Q83.23,-0.81,81.97,-0.25Q80.7,0.31,79.01,0.31M93.44,0.31L93.44,0.31Q91.52,0.31,90.1,-0.56Q88.69,-1.43,87.92,-3.03Q87.15,-4.63,87.15,-6.81L87.15,-6.81Q87.15,-9,87.92,-10.57Q88.69,-12.14,90.1,-13.01Q91.52,-13.88,93.44,-13.88L93.44,-13.88Q95.39,-13.88,96.81,-13.01Q98.23,-12.14,99,-10.57Q99.76,-9,99.76,-6.81L99.76,-6.81Q99.76,-4.63,99,-3.03Q98.23,-1.43,96.81,-0.56Q95.39,0.31,93.44,0.31M93.44,-2.37L93.44,-2.37Q94.77,-2.37,95.52,-3.19Q96.28,-4,96.28,-5.54L96.28,-5.54L96.28,-8.06Q96.28,-9.59,95.52,-10.4Q94.77,-11.21,93.44,-11.21L93.44,-11.21Q92.17,-11.21,91.4,-10.4Q90.64,-9.59,90.64,-8.06L90.64,-8.06L90.64,-5.54Q90.64,-4,91.4,-3.19Q92.17,-2.37,93.44,-2.37M114.66,0L111.33,0L111.33,-2.26L111.2,-2.26Q110.86,-1.25,109.98,-0.47Q109.1,0.31,107.41,0.31L107.41,0.31Q105.33,0.31,104.2,-1.08Q103.06,-2.47,103.06,-4.99L103.06,-4.99L103.06,-13.57L106.39,-13.57L106.39,-5.33Q106.39,-3.93,106.94,-3.19Q107.48,-2.44,108.68,-2.44L108.68,-2.44Q109.33,-2.44,109.94,-2.68Q110.55,-2.91,110.94,-3.39Q111.33,-3.87,111.33,-4.6L111.33,-4.6L111.33,-13.57L114.66,-13.57L114.66,0M122.36,-8.32L122.36,0L119.03,0L119.03,-13.57L122.36,-13.57L122.36,-10.76L122.49,-10.76Q122.67,-11.49,123.1,-12.13Q123.53,-12.77,124.27,-13.17Q125.01,-13.57,126.07,-13.57L126.07,-13.57L126.8,-13.57L126.8,-10.43L125.76,-10.43Q124.64,-10.43,123.88,-10.2Q123.11,-9.98,122.73,-9.53Q122.36,-9.07,122.36,-8.32L122.36,-8.32M135.12,0.31L135.12,0.31Q132.11,0.31,130.48,-1.61Q128.86,-3.54,128.86,-6.81L128.86,-6.81Q128.86,-10.06,130.48,-11.97Q132.11,-13.88,135.12,-13.88L135.12,-13.88Q137.18,-13.88,138.51,-12.97Q139.85,-12.06,140.45,-10.45L140.45,-10.45L137.72,-9.23Q137.49,-10.09,136.84,-10.65Q136.19,-11.21,135.12,-11.21L135.12,-11.21Q133.74,-11.21,133.04,-10.33Q132.34,-9.46,132.34,-8.01L132.34,-8.01L132.34,-5.54Q132.34,-4.13,133.04,-3.25Q133.74,-2.37,135.12,-2.37L135.12,-2.37Q136.29,-2.37,136.96,-2.98Q137.62,-3.59,137.98,-4.5L137.98,-4.5L140.53,-3.28Q139.88,-1.48,138.49,-0.59Q137.1,0.31,135.12,0.31M149.11,0.31L149.11,0.31Q147.11,0.31,145.68,-0.56Q144.25,-1.43,143.48,-3.03Q142.71,-4.63,142.71,-6.81L142.71,-6.81Q142.71,-8.94,143.47,-10.54Q144.22,-12.14,145.63,-13.01Q147.03,-13.88,149.01,-13.88L149.01,-13.88Q151.14,-13.88,152.5,-12.95Q153.87,-12.01,154.53,-10.47Q155.19,-8.92,155.19,-7.05L155.19,-7.05L155.19,-5.95L146.17,-5.95L146.17,-5.62Q146.17,-4.16,147,-3.25Q147.84,-2.34,149.47,-2.34L149.47,-2.34Q150.7,-2.34,151.5,-2.87Q152.31,-3.41,152.93,-4.19L152.93,-4.19L154.73,-2.18Q153.89,-1.07,152.45,-0.38Q151.01,0.31,149.11,0.31M149.06,-11.39L149.06,-11.39Q148.17,-11.39,147.52,-10.99Q146.87,-10.58,146.52,-9.87Q146.17,-9.15,146.17,-8.22L146.17,-8.22L146.17,-8.01L151.74,-8.01L151.74,-8.24Q151.74,-9.2,151.42,-9.89Q151.11,-10.58,150.51,-10.99Q149.92,-11.39,149.06,-11.39M170.69,0.31L170.69,0.31Q168.77,0.31,167.35,-0.56Q165.93,-1.43,165.17,-3.03Q164.4,-4.63,164.4,-6.81L164.4,-6.81Q164.4,-9,165.17,-10.57Q165.93,-12.14,167.35,-13.01Q168.77,-13.88,170.69,-13.88L170.69,-13.88Q172.64,-13.88,174.06,-13.01Q175.47,-12.14,176.24,-10.57Q177.01,-9,177.01,-6.81L177.01,-6.81Q177.01,-4.63,176.24,-3.03Q175.47,-1.43,174.06,-0.56Q172.64,0.31,170.69,0.31M170.69,-2.37L170.69,-2.37Q172.02,-2.37,172.77,-3.19Q173.52,-4,173.52,-5.54L173.52,-5.54L173.52,-8.06Q173.52,-9.59,172.77,-10.4Q172.02,-11.21,170.69,-11.21L170.69,-11.21Q169.42,-11.21,168.65,-10.4Q167.88,-9.59,167.88,-8.06L167.88,-8.06L167.88,-5.54Q167.88,-4,168.65,-3.19Q169.42,-2.37,170.69,-2.37M183.79,-8.97L183.79,0L180.47,0L180.47,-13.57L183.79,-13.57L183.79,-11.31L183.92,-11.31Q184.34,-12.4,185.24,-13.14Q186.13,-13.88,187.72,-13.88L187.72,-13.88Q189.8,-13.88,190.93,-12.49Q192.06,-11.1,192.06,-8.58L192.06,-8.58L192.06,0L188.73,0L188.73,-8.24Q188.73,-9.67,188.21,-10.41Q187.69,-11.15,186.5,-11.15L186.5,-11.15Q185.82,-11.15,185.2,-10.91Q184.57,-10.66,184.18,-10.18Q183.79,-9.7,183.79,-8.97L183.79,-8.97M217.67,0L214.71,0L214.71,-2.81L214.6,-2.81Q214.37,-1.48,213.13,-0.59Q211.9,0.31,209.85,0.31L209.85,0.31Q207.71,0.31,206.02,-0.75Q204.33,-1.82,203.35,-3.9Q202.36,-5.98,202.36,-9.02L202.36,-9.02Q202.36,-12.06,203.37,-14.17Q204.39,-16.28,206.21,-17.37Q208.03,-18.46,210.44,-18.46L210.44,-18.46Q212.86,-18.46,214.6,-17.38Q216.35,-16.3,217.31,-14.33L217.31,-14.33L214.53,-12.69Q214.03,-13.88,213.04,-14.65Q212.06,-15.42,210.44,-15.42L210.44,-15.42Q209.12,-15.42,208.12,-14.86Q207.12,-14.3,206.56,-13.22Q206,-12.14,206,-10.53L206,-10.53L206,-7.62Q206,-6.03,206.56,-4.94Q207.12,-3.85,208.13,-3.29Q209.14,-2.73,210.5,-2.73L210.5,-2.73Q211.56,-2.73,212.45,-3.08Q213.33,-3.43,213.85,-4.12Q214.37,-4.81,214.37,-5.82L214.37,-5.82L214.37,-6.99L210.81,-6.99L210.81,-9.88L217.67,-9.88L217.67,0M223.63,-15.55L223.63,-15.55Q222.61,-15.55,222.14,-16.03Q221.68,-16.51,221.68,-17.21L221.68,-17.21L221.68,-17.73Q221.68,-18.46,222.14,-18.93Q222.61,-19.4,223.63,-19.4L223.63,-19.4Q224.64,-19.4,225.11,-18.93Q225.58,-18.46,225.58,-17.73L225.58,-17.73L225.58,-17.21Q225.58,-16.51,225.11,-16.03Q224.64,-15.55,223.63,-15.55M225.29,0L221.96,0L221.96,-13.57L225.29,-13.57L225.29,0M236.26,-2.65L236.26,0L233.87,0Q232.15,0,231.26,-0.9Q230.36,-1.79,230.36,-3.46L230.36,-3.46L230.36,-10.95L228.36,-10.95L228.36,-13.57L229.4,-13.57Q230.15,-13.57,230.43,-13.92Q230.7,-14.27,230.7,-14.98L230.7,-14.98L230.7,-17.29L233.69,-17.29L233.69,-13.57L236.47,-13.57L236.47,-10.95L233.69,-10.95L233.69,-2.65L236.26,-2.65M254.51,0L251.08,0L251.08,-7.67L243.52,-7.67L243.52,0L240.08,0L240.08,-18.15L243.52,-18.15L243.52,-10.69L251.08,-10.69L251.08,-18.15L254.51,-18.15L254.51,0M270.53,0L267.2,0L267.2,-2.26L267.07,-2.26Q266.73,-1.25,265.85,-0.47Q264.97,0.31,263.28,0.31L263.28,0.31Q261.2,0.31,260.06,-1.08Q258.93,-2.47,258.93,-4.99L258.93,-4.99L258.93,-13.57L262.26,-13.57L262.26,-5.33Q262.26,-3.93,262.81,-3.19Q263.35,-2.44,264.55,-2.44L264.55,-2.44Q265.2,-2.44,265.81,-2.68Q266.42,-2.91,266.81,-3.39Q267.2,-3.87,267.2,-4.6L267.2,-4.6L267.2,-13.57L270.53,-13.57L270.53,0M278.23,0L274.9,0L274.9,-19.24L278.23,-19.24L278.23,-11.34L278.33,-11.34Q278.69,-12.51,279.72,-13.19Q280.75,-13.88,282.07,-13.88L282.07,-13.88Q283.82,-13.88,284.99,-13.05Q286.16,-12.22,286.78,-10.65Q287.4,-9.07,287.4,-6.81L287.4,-6.81Q287.4,-4.55,286.78,-2.95Q286.16,-1.35,284.99,-0.52Q283.82,0.31,282.07,0.31L282.07,0.31Q280.75,0.31,279.73,-0.39Q278.72,-1.09,278.33,-2.26L278.33,-2.26L278.23,-2.26L278.23,0M281.01,-2.44L281.01,-2.44Q282.31,-2.44,283.11,-3.32Q283.92,-4.19,283.92,-5.62L283.92,-5.62L283.92,-7.96Q283.92,-9.41,283.11,-10.28Q282.31,-11.15,281.01,-11.15L281.01,-11.15Q280.23,-11.15,279.59,-10.88Q278.95,-10.61,278.59,-10.11Q278.23,-9.62,278.23,-8.97L278.23,-8.97L278.23,-4.65Q278.23,-3.95,278.59,-3.46Q278.95,-2.96,279.59,-2.7Q280.23,-2.44,281.01,-2.44" transform="translate(495.04,480.42)"/>
</svg>
